<svg width="25" height="24" viewBox="0 0 25 24" fill="none" xmlns="http://www.w3.org/2000/svg">
<g clip-path="url(#clip0_43_564)">
<path fill-rule="evenodd" clip-rule="evenodd" d="M20.3047 3H18.0547V2.25C18.0547 1.83579 17.7189 1.5 17.3047 1.5C16.8905 1.5 16.5547 1.83579 16.5547 2.25V3H9.05469V2.25C9.05469 1.83579 8.7189 1.5 8.30469 1.5C7.89047 1.5 7.55469 1.83579 7.55469 2.25V3H5.30469C4.47626 3 3.80469 3.67157 3.80469 4.5V19.5C3.80469 20.3284 4.47626 21 5.30469 21H20.3047C21.1331 21 21.8047 20.3284 21.8047 19.5V4.5C21.8047 3.67157 21.1331 3 20.3047 3ZM11.3047 17.25C11.3047 17.6642 10.9689 18 10.5547 18C10.1405 18 9.80469 17.6642 9.80469 17.25V12.4631L9.39031 12.6713C9.01959 12.8566 8.5688 12.7063 8.38344 12.3356C8.19808 11.9649 8.34834 11.5141 8.71906 11.3287L10.2191 10.5787C10.4516 10.4624 10.7279 10.4748 10.9491 10.6116C11.1703 10.7483 11.3049 10.9899 11.3047 11.25V17.25ZM16.5547 16.5C16.9689 16.5 17.3047 16.8358 17.3047 17.25C17.3047 17.6642 16.9689 18 16.5547 18H13.5547C13.2706 18 13.0109 17.8395 12.8839 17.5854C12.7568 17.3313 12.7842 17.0273 12.9547 16.8L15.6528 13.2028C15.82 12.9802 15.8502 12.6833 15.7311 12.4316C15.612 12.1799 15.3633 12.0149 15.0851 12.003C14.8069 11.9912 14.5451 12.1344 14.405 12.375C14.2749 12.6146 14.025 12.7647 13.7523 12.7671C13.4797 12.7694 13.2272 12.6236 13.093 12.3863C12.9588 12.1489 12.964 11.8574 13.1066 11.625C13.6159 10.7435 14.6537 10.3139 15.6371 10.5774C16.6205 10.8409 17.3043 11.7319 17.3047 12.75C17.3063 13.2391 17.1468 13.7152 16.8509 14.1047L15.0547 16.5H16.5547ZM5.30469 7.5V4.5H7.55469V5.25C7.55469 5.66421 7.89047 6 8.30469 6C8.7189 6 9.05469 5.66421 9.05469 5.25V4.5H16.5547V5.25C16.5547 5.66421 16.8905 6 17.3047 6C17.7189 6 18.0547 5.66421 18.0547 5.25V4.5H20.3047V7.5H5.30469Z" fill="#4A699C"/>
</g>
<defs>
<clipPath id="clip0_43_564">
<rect width="24" height="24" fill="white" transform="translate(0.804688)"/>
</clipPath>
</defs>
</svg>
