<svg width="24" height="32" viewBox="0 0 24 32" fill="none" xmlns="http://www.w3.org/2000/svg">
<g clip-path="url(#clip0_43_572)">
<path fill-rule="evenodd" clip-rule="evenodd" d="M16.6953 7C14.7594 7 13.0644 7.8325 12.0078 9.23969C10.9513 7.8325 9.25625 7 7.32031 7C4.11166 7.00362 1.51143 9.60384 1.50781 12.8125C1.50781 19.375 11.2381 24.6869 11.6525 24.9062C11.8743 25.0256 12.1413 25.0256 12.3631 24.9062C12.7775 24.6869 22.5078 19.375 22.5078 12.8125C22.5042 9.60384 19.904 7.00362 16.6953 7ZM12.0078 23.3875C10.2959 22.39 3.00781 17.8459 3.00781 12.8125C3.01091 10.4321 4.93987 8.5031 7.32031 8.5C9.14375 8.5 10.6747 9.47125 11.3141 11.0312C11.4296 11.3126 11.7037 11.4963 12.0078 11.4963C12.312 11.4963 12.586 11.3126 12.7016 11.0312C13.3409 9.46844 14.8719 8.5 16.6953 8.5C19.0758 8.5031 21.0047 10.4321 21.0078 12.8125C21.0078 17.8384 13.7178 22.3891 12.0078 23.3875Z" fill="#4A699C"/>
</g>
<defs>
<clipPath id="clip0_43_572">
<rect width="24" height="24" fill="white" transform="translate(0.0078125 4)"/>
</clipPath>
</defs>
</svg>
