<svg width="25" height="32" viewBox="0 0 25 32" fill="none" xmlns="http://www.w3.org/2000/svg">
<g clip-path="url(#clip0_43_604)">
<path fill-rule="evenodd" clip-rule="evenodd" d="M21.1169 13.7284L13.6169 6.65219C13.6132 6.64899 13.6098 6.64554 13.6066 6.64188C13.0344 6.1215 12.1603 6.1215 11.5881 6.64188L11.5778 6.65219L4.08625 13.7284C3.77729 14.0125 3.6015 14.4131 3.60156 14.8328V23.5C3.60156 24.3284 4.27314 25 5.10156 25H9.60156C10.43 25 11.1016 24.3284 11.1016 23.5V19H14.1016V23.5C14.1016 24.3284 14.7731 25 15.6016 25H20.1016C20.93 25 21.6016 24.3284 21.6016 23.5V14.8328C21.6016 14.4131 21.4258 14.0125 21.1169 13.7284ZM20.1016 23.5H15.6016V19C15.6016 18.1716 14.93 17.5 14.1016 17.5H11.1016C10.2731 17.5 9.60156 18.1716 9.60156 19V23.5H5.10156V14.8328L5.11188 14.8234L12.6016 7.75L20.0922 14.8216L20.1025 14.8309L20.1016 23.5Z" fill="#4A699C"/>
</g>
<defs>
<clipPath id="clip0_43_604">
<rect width="24" height="24" fill="white" transform="translate(0.601562 4)"/>
</clipPath>
</defs>
</svg>
