<svg width="25" height="24" viewBox="0 0 25 24" fill="none" xmlns="http://www.w3.org/2000/svg">
<g clip-path="url(#clip0_43_582)">
<path fill-rule="evenodd" clip-rule="evenodd" d="M21.51 9.795C22.2085 9.65288 22.7105 9.03878 22.7109 8.32594V6C22.7109 5.17157 22.0394 4.5 21.2109 4.5H3.21094C2.38251 4.5 1.71094 5.17157 1.71094 6V8.32594C1.71133 9.03878 2.21335 9.65288 2.91188 9.795C3.9562 10.0116 4.70499 10.9316 4.70499 11.9981C4.70499 13.0647 3.9562 13.9847 2.91188 14.2013C2.21197 14.3437 1.70954 14.9598 1.71094 15.6741V18C1.71094 18.8284 2.38251 19.5 3.21094 19.5H21.2109C22.0394 19.5 22.7109 18.8284 22.7109 18V15.6741C22.7105 14.9612 22.2085 14.3471 21.51 14.205C20.4657 13.9884 19.7169 13.0684 19.7169 12.0019C19.7169 10.9353 20.4657 10.0153 21.51 9.79875V9.795ZM3.21094 15.675C4.95759 15.3192 6.21239 13.783 6.21239 12.0005C6.21239 10.2179 4.95759 8.68175 3.21094 8.32594V6H8.46094V18H3.21094V15.675ZM21.2109 15.675V18H9.96094V6H21.2109V8.325C19.4643 8.68081 18.2095 10.217 18.2095 11.9995C18.2095 13.7821 19.4643 15.3182 21.2109 15.6741V15.675Z" fill="#4A699C"/>
</g>
<defs>
<clipPath id="clip0_43_582">
<rect width="24" height="24" fill="white" transform="translate(0.210938)"/>
</clipPath>
</defs>
</svg>
